<svg width="20" height="20" viewBox="0 0 20 20" fill="none" xmlns="http://www.w3.org/2000/svg">
<path d="M5.83748 6.66634V4.99967C5.83748 2.69849 7.70297 0.833008 10.0042 0.833008C12.3053 0.833008 14.1708 2.69849 14.1708 4.99967V6.66634H16.6708C17.1311 6.66634 17.5042 7.03944 17.5042 7.49967V17.4997C17.5042 17.9599 17.1311 18.333 16.6708 18.333H3.33748C2.87725 18.333 2.50415 17.9599 2.50415 17.4997V7.49967C2.50415 7.03944 2.87725 6.66634 3.33748 6.66634H5.83748ZM5.83748 8.33301H4.17082V16.6663H15.8375V8.33301H14.1708V9.99966H12.5042V8.33301H7.50415V9.99966H5.83748V8.33301ZM7.50415 6.66634H12.5042V4.99967C12.5042 3.61896 11.3848 2.49967 10.0042 2.49967C8.62342 2.49967 7.50415 3.61896 7.50415 4.99967V6.66634Z" fill="#343434"/>
</svg>
