<svg width="20" height="20" viewBox="0 0 20 20" fill="none" xmlns="http://www.w3.org/2000/svg">
<path d="M10.1426 12.5C10.4857 11.529 11.4118 10.8333 12.5003 10.8333C13.5888 10.8333 14.5149 11.529 14.8581 12.5H18.3337V14.1667H14.8581C14.5149 15.1377 13.5888 15.8333 12.5003 15.8333C11.4118 15.8333 10.4857 15.1377 10.1426 14.1667H1.66699V12.5H10.1426ZM5.14258 6.66667C5.48578 5.69568 6.41181 5 7.50033 5C8.58883 5 9.51491 5.69568 9.85808 6.66667H18.3337V8.33333H9.85808C9.51491 9.30433 8.58883 10 7.50033 10C6.41181 10 5.48578 9.30433 5.14258 8.33333H1.66699V6.66667H5.14258ZM7.50033 8.33333C7.96056 8.33333 8.33366 7.96023 8.33366 7.5C8.33366 7.03977 7.96056 6.66667 7.50033 6.66667C7.04009 6.66667 6.66699 7.03977 6.66699 7.5C6.66699 7.96023 7.04009 8.33333 7.50033 8.33333ZM12.5003 14.1667C12.9606 14.1667 13.3337 13.7936 13.3337 13.3333C13.3337 12.8731 12.9606 12.5 12.5003 12.5C12.0401 12.5 11.667 12.8731 11.667 13.3333C11.667 13.7936 12.0401 14.1667 12.5003 14.1667Z" fill="#343434"/>
</svg>
