<svg width="20" height="20" viewBox="0 0 20 20" fill="none" xmlns="http://www.w3.org/2000/svg">
<path d="M14.1667 5.33333H18.3334V7H16.6667V17.8333C16.6667 18.2936 16.2937 18.6667 15.8334 18.6667H4.16675C3.70651 18.6667 3.33341 18.2936 3.33341 17.8333V7H1.66675V5.33333H5.83341V2.83333C5.83341 2.3731 6.20651 2 6.66675 2H13.3334C13.7937 2 14.1667 2.3731 14.1667 2.83333V5.33333ZM15.0001 7H5.00008V17H15.0001V7ZM7.50008 9.5H9.16675V14.5H7.50008V9.5ZM10.8334 9.5H12.5001V14.5H10.8334V9.5ZM7.50008 3.66667V5.33333H12.5001V3.66667H7.50008Z" fill="#343434"/>
</svg>
